HIERARCHY
ROOT Hips
{
	OFFSET -3.958830 18.904000 13.208200
	CHANNELS 6 Xposition Yposition Zposition Zrotation Yrotation Xrotation 
	JOINT LHipJoint
	{
		OFFSET 0.000000 0.000000 0.000000
		CHANNELS 3 Zrotation Yrotation Xrotation
		JOINT LeftUpLeg
		{
			OFFSET 1.800000 -1.400000 0.085000
			CHANNELS 3 Zrotation Yrotation Xrotation
			JOINT LeftLeg
			{
				OFFSET 2.215000 -6.000000 0.000000
				CHANNELS 3 Zrotation Yrotation Xrotation
				JOINT LeftFoot
				{
					OFFSET 2.500000 -6.900000 0.000000
					CHANNELS 3 Zrotation Yrotation Xrotation
					JOINT LeftToeBase
					{
						OFFSET 0.200000 -0.500000 1.950000
						CHANNELS 3 Zrotation Yrotation Xrotation
						End Site
						{
							OFFSET 0.000000 0.000000 0.000000
						}
					}
				}
			}
		}
	}
	JOINT RHipJoint
	{
		OFFSET 0.000000 0.000000 0.000000
		CHANNELS 3 Zrotation Yrotation Xrotation
		JOINT RightUpLeg
		{
			OFFSET -1.800000 -1.400000 0.085000
			CHANNELS 3 Zrotation Yrotation Xrotation
			JOINT RightLeg
			{
				OFFSET -2.215000 -6.000000 0.000000
				CHANNELS 3 Zrotation Yrotation Xrotation
				JOINT RightFoot
				{
					OFFSET -2.500000 -6.900000 0.000000
					CHANNELS 3 Zrotation Yrotation Xrotation
					JOINT RightToeBase
					{
						OFFSET -0.200000 -0.500000 1.950000
						CHANNELS 3 Zrotation Yrotation Xrotation
						End Site
						{
							OFFSET 0.000000 0.000000 0.000000
						}
					}
				}
			}
		}
	}
	JOINT LowerBack
	{
		OFFSET 0.000000 0.000000 0.000000
		CHANNELS 3 Zrotation Yrotation Xrotation
		JOINT Spine
		{
			OFFSET -0.087000 1.940000 -0.288900
			CHANNELS 3 Zrotation Yrotation Xrotation
			JOINT Spine1
			{
				OFFSET 0.000000 1.950000 0.060000
				CHANNELS 3 Zrotation Yrotation Xrotation
				JOINT Neck
				{
					OFFSET 0.000000 0.000000 0.000000
					CHANNELS 3 Zrotation Yrotation Xrotation
					JOINT Neck1
					{
						OFFSET 0.000000 1.600000 0.340000
						CHANNELS 3 Zrotation Yrotation Xrotation
						JOINT Head
						{
							OFFSET 0.000000 1.667000 -0.240000
							CHANNELS 3 Zrotation Yrotation Xrotation
							End Site
							{
								OFFSET 0.000000 0.000000 0.000000
							}
						}
					}
				}
				JOINT LeftShoulder
				{
					OFFSET 0.000000 0.000000 0.000000
					CHANNELS 3 Zrotation Yrotation Xrotation
					JOINT LeftArm
					{
						OFFSET 2.700000 1.550000 -0.730000
						CHANNELS 3 Zrotation Yrotation Xrotation
						JOINT LeftForeArm
						{
							OFFSET 5.450000 0.000000 0.000000
							CHANNELS 3 Zrotation Yrotation Xrotation
							JOINT LeftHand
							{
								OFFSET 3.450000 0.000000 0.000000
								CHANNELS 3 Zrotation Yrotation Xrotation
								JOINT LeftHandIndex1
								{
									OFFSET 0.750000 0.000000 0.000000
									CHANNELS 3 Zrotation Yrotation Xrotation
									End Site
									{
										OFFSET 0.000000 0.000000 0.000000
									}
								}
							}
						}
					}
				}
				JOINT RightShoulder
				{
					OFFSET 0.000000 0.000000 0.000000
					CHANNELS 3 Zrotation Yrotation Xrotation
					JOINT RightArm
					{
						OFFSET -2.700000 1.550000 -0.730000
						CHANNELS 3 Zrotation Yrotation Xrotation
						JOINT RightForeArm
						{
							OFFSET -5.450000 0.000000 0.000000
							CHANNELS 3 Zrotation Yrotation Xrotation
							JOINT RightHand
							{
								OFFSET -3.450000 0.000000 0.000000
								CHANNELS 3 Zrotation Yrotation Xrotation
								JOINT RightHandIndex1
								{
									OFFSET -0.750000 0.000000 0.000000
									CHANNELS 3 Zrotation Yrotation Xrotation
									End Site
									{
										OFFSET 0.000000 0.000000 0.000000
									}
								}
							}
						}
					}
				}
			}
		}
	}
}
MOTION
Frames: 8
Frame Time: 0.016667
-1.104350 17.810990 2.229480 1.147116 -11.851337 3.168497 -15.601432 10.725332 6.207718 13.573407 -11.764142 -46.608302 -17.258964 25.116232 63.914650 1.186504 15.016149 -0.273864 -0.474970 -0.777600 -0.471360 18.360377 -9.585992 1.683286 -1.832571 0.225140 -8.329970 4.533763 -5.209534 13.996794 0.154652 -3.737425 3.373160 -0.129140 1.026140 -0.104810 -3.205983 -1.593129 -8.176197 4.339166 4.542380 8.115674 -1.086324 5.599982 1.211754 -0.279384 -7.311383 -6.091870 -15.022231 13.889352 29.841967 -2.416290 10.516010 2.314830 -23.821605 0.694221 -0.486418 -54.525674 -6.761498 -3.801423 -28.667802 -43.594134 7.917649 -4.383628 2.717727 0.431960 0.568100 -0.685520 0.012560 24.040909 5.913204 3.177694 54.475438 2.505805 -4.186372 11.954756 6.132268 -0.464629 2.031587 -0.893289 -0.862610 0.707020 0.732130 -0.247420 
-1.102420 17.833650 2.161160 1.599434 -11.899342 2.913685 -15.653573 10.711412 6.309119 13.830186 -12.386490 -46.689570 -17.928948 26.468099 65.964289 1.321406 15.560147 -0.422296 -0.460780 -0.765100 -0.446170 18.314225 -9.495049 1.649555 -2.259641 0.235674 -8.411513 4.830795 -5.234051 13.587767 0.145489 -3.690777 3.378707 -0.120930 0.999050 -0.108520 -3.066104 -1.782233 -8.258634 3.415840 4.401841 8.617393 -0.726340 5.489376 1.292275 -0.316584 -7.289626 -6.238078 -15.192190 13.921791 30.205859 -2.684020 10.770200 1.436640 -23.857577 0.316926 -0.418756 -53.890225 -7.070693 -3.756815 -30.035523 -45.152168 8.823853 -4.364547 2.721821 0.465860 0.548110 -0.663250 0.001780 24.253340 6.248835 3.379125 54.029718 2.170537 -4.368991 12.103628 6.251742 -0.452338 2.019772 -0.871496 -0.869510 0.714200 0.732010 -0.265830 
-1.099180 17.848040 2.095800 1.991653 -11.893611 2.692687 -15.694100 10.717888 6.369855 13.892713 -12.959816 -46.542575 -18.256443 27.513038 67.807275 1.440316 16.010150 -0.533864 -0.458640 -0.766610 -0.434610 18.274877 -9.425821 1.625670 -2.657344 0.246635 -8.523305 5.116011 -5.259460 13.225831 0.145978 -3.655773 3.390840 -0.119920 0.989060 -0.113150 -2.950354 -1.947615 -8.316558 2.642584 4.255545 8.979059 -0.418986 5.361582 1.404723 -0.346118 -7.243538 -6.387027 -15.289134 13.931375 30.537269 -2.820740 10.952770 1.041600 -23.905342 -0.092117 -0.325237 -53.312609 -7.366632 -3.687403 -31.340044 -46.537471 9.712793 -4.356662 2.724485 0.486440 0.540130 -0.654060 -0.004150 24.457083 6.577161 3.597031 53.584103 1.794535 -4.564322 12.241570 6.487856 -0.438679 2.007256 -0.853379 -0.878790 0.723110 0.734720 -0.277720 
-1.093310 17.853650 2.030610 2.301971 -11.795689 2.562560 -15.722448 10.730065 6.409009 13.861316 -13.494638 -46.305797 -18.426878 28.322960 69.389668 1.547906 16.372636 -0.614271 -0.456790 -0.763500 -0.433620 18.246113 -9.370171 1.607917 -2.968767 0.275533 -8.771996 5.386268 -5.280582 12.993153 0.150402 -3.623423 3.404606 -0.117240 0.988540 -0.118600 -2.866889 -2.087687 -8.356727 2.088807 4.042705 9.230118 -0.233108 5.170034 1.532529 -0.382070 -7.223336 -6.540406 -15.386076 13.978346 30.681144 -2.719710 11.015090 0.918480 -23.928615 -0.517570 -0.208250 -52.802193 -7.641339 -3.623577 -32.538353 -47.794685 10.560880 -4.349431 2.734645 0.493880 0.536540 -0.650960 -0.001920 24.633028 6.902077 3.818726 53.124941 1.405963 -4.754992 12.416391 6.834457 -0.429170 1.996932 -0.845661 -0.883860 0.731840 0.733720 -0.279700 
-1.085940 17.849990 1.967240 2.512804 -11.681708 2.549973 -15.740923 10.743396 6.424100 13.803019 -13.935935 -45.957386 -18.447053 28.939020 70.766485 1.646188 16.659800 -0.671363 -0.448180 -0.746090 -0.435280 18.227422 -9.323827 1.599276 -3.144034 0.318063 -9.120571 5.586539 -5.262551 12.729684 0.154941 -3.585857 3.420129 -0.110210 0.990770 -0.118040 -2.812832 -2.196484 -8.376457 1.734630 3.809965 9.355338 -0.131831 4.952007 1.611257 -0.425523 -7.200559 -6.577084 -15.392809 13.967105 30.554365 -2.643160 11.031780 0.849770 -24.025907 -0.719897 -0.198121 -52.278223 -7.987351 -3.433170 -33.671290 -48.810955 11.401416 -4.345962 2.754294 0.487890 0.538490 -0.648050 0.006410 24.862124 6.974225 3.932162 52.647851 1.024361 -4.909050 12.532251 7.208963 -0.431389 1.988758 -0.850887 -0.877710 0.733890 0.725450 -0.273160 
-1.076870 17.839570 1.905400 2.619070 -11.603443 2.611702 -15.750723 10.762201 6.423420 13.782602 -14.252372 -45.494648 -18.373454 29.454170 71.988591 1.731252 16.909746 -0.717878 -0.445920 -0.739830 -0.439160 18.216009 -9.287888 1.596473 -3.206099 0.387669 -9.608229 5.755626 -5.249715 12.614098 0.164912 -3.547091 3.436485 -0.108340 0.998710 -0.114790 -2.781932 -2.281291 -8.386332 1.582591 3.551718 9.415528 -0.124784 4.715814 1.646599 -0.433209 -7.158572 -6.593496 -15.312370 13.955087 30.342949 -2.591190 11.079680 0.930990 -24.153939 -0.875994 -0.194694 -51.796973 -8.244719 -3.280894 -34.559914 -49.699443 12.115837 -4.348925 2.771739 0.480010 0.545400 -0.649910 0.013530 25.037258 6.968109 4.012973 52.290252 0.657234 -5.082509 12.465387 7.663987 -0.429586 1.980547 -0.856250 -0.874080 0.734230 0.720980 -0.267290 
-1.064480 17.823200 1.846020 2.536722 -11.486981 2.733104 -15.744574 10.792498 6.392923 13.744250 -14.464580 -44.795551 -18.164688 29.690608 72.905444 1.786283 17.065419 -0.746827 -0.448870 -0.735220 -0.457980 18.218228 -9.262652 1.610695 -3.087376 0.460521 -10.126300 5.950876 -5.236938 12.515120 0.176042 -3.512349 3.447830 -0.105400 1.011220 -0.110450 -2.793560 -2.347576 -8.383773 1.831666 3.210051 9.425086 -0.144406 4.423904 1.700352 -0.488848 -7.211425 -6.626332 -15.408025 13.998825 29.978574 -2.386850 10.983760 1.086450 -24.253218 -0.991632 -0.141982 -51.610251 -8.484816 -3.099952 -35.605643 -50.939568 13.017962 -4.353794 2.799397 0.467430 0.553280 -0.656240 0.020910 25.250509 6.948195 4.084971 51.811740 0.309054 -5.203423 12.255700 8.032507 -0.430163 1.971596 -0.863724 -0.869410 0.733130 0.724400 -0.256500 
-1.049310 17.806960 1.788000 2.392889 -11.376177 2.826469 -15.728468 10.859931 6.325087 13.543485 -14.564742 -43.725062 -17.810850 29.571142 73.389280 1.811400 17.098786 -0.741938 -0.451480 -0.732740 -0.479570 18.222429 -9.260094 1.636917 -2.894725 0.547364 -10.725070 6.073700 -5.228701 12.574976 0.185254 -3.476108 3.464745 -0.105940 1.027810 -0.104180 -2.818129 -2.414036 -8.371526 2.235201 2.829385 9.473718 -0.159356 4.104902 1.721806 -0.534477 -7.310202 -6.710877 -15.630323 13.987835 29.704003 -2.224490 10.789270 1.298770 -24.411604 -1.185795 -0.042658 -51.528620 -8.638325 -3.014111 -36.267599 -52.105122 13.706402 -4.354710 2.819978 0.458670 0.561450 -0.660410 0.035720 25.504293 7.035940 4.213549 51.291950 -0.085050 -5.342793 11.894754 8.384326 -0.428286 1.960877 -0.869545 -0.865030 0.735140 0.724710 -0.242950 
